<mxfile host="Electron" modified="2024-08-03T16:25:01.443Z" agent="Mozilla/5.0 (Macintosh; Intel Mac OS X 10_15_7) AppleWebKit/537.36 (KHTML, like Gecko) draw.io/22.1.16 Chrome/120.0.6099.109 Electron/28.1.0 Safari/537.36" etag="ycd91gGVcjVP3mKD2CTS" version="22.1.16" type="device">
  <diagram name="Page-1" id="oYzTT0H8R0ORPGKp1H7J">
    <mxGraphModel dx="994" dy="652" grid="1" gridSize="10" guides="1" tooltips="1" connect="1" arrows="1" fold="1" page="1" pageScale="1" pageWidth="827" pageHeight="1169" math="0" shadow="0">
      <root>
        <mxCell id="0" />
        <mxCell id="1" parent="0" />
        <mxCell id="mFGwXmJiUFZ16h0V5Hi0-9" value="" style="group" vertex="1" connectable="0" parent="1">
          <mxGeometry x="240" y="240" width="90" height="118" as="geometry" />
        </mxCell>
        <mxCell id="mFGwXmJiUFZ16h0V5Hi0-6" value="" style="sketch=0;outlineConnect=0;fontColor=#ffffff;fillColor=#1A1A1A;strokeColor=#006EAF;dashed=0;verticalLabelPosition=bottom;verticalAlign=top;align=center;html=1;fontSize=12;fontStyle=0;aspect=fixed;pointerEvents=1;shape=mxgraph.aws4.sagemaker_model;" vertex="1" parent="mFGwXmJiUFZ16h0V5Hi0-9">
          <mxGeometry x="6" y="40" width="78" height="78" as="geometry" />
        </mxCell>
        <mxCell id="mFGwXmJiUFZ16h0V5Hi0-7" value="&lt;font style=&quot;font-size: 18px;&quot;&gt;&lt;b&gt;Model 2&lt;/b&gt;&lt;/font&gt;" style="text;html=1;align=center;verticalAlign=middle;resizable=0;points=[];autosize=1;strokeColor=none;fillColor=none;" vertex="1" parent="mFGwXmJiUFZ16h0V5Hi0-9">
          <mxGeometry width="90" height="40" as="geometry" />
        </mxCell>
        <mxCell id="mFGwXmJiUFZ16h0V5Hi0-10" value="" style="group" vertex="1" connectable="0" parent="1">
          <mxGeometry x="104" y="240" width="90" height="118" as="geometry" />
        </mxCell>
        <mxCell id="mFGwXmJiUFZ16h0V5Hi0-3" value="" style="sketch=0;outlineConnect=0;fontColor=#ffffff;fillColor=#1A1A1A;strokeColor=#2D7600;dashed=0;verticalLabelPosition=bottom;verticalAlign=top;align=center;html=1;fontSize=12;fontStyle=0;aspect=fixed;pointerEvents=1;shape=mxgraph.aws4.sagemaker_model;" vertex="1" parent="mFGwXmJiUFZ16h0V5Hi0-10">
          <mxGeometry x="6" y="40" width="78" height="78" as="geometry" />
        </mxCell>
        <mxCell id="mFGwXmJiUFZ16h0V5Hi0-5" value="&lt;font style=&quot;font-size: 18px;&quot;&gt;&lt;b&gt;Model 1&lt;/b&gt;&lt;/font&gt;" style="text;html=1;align=center;verticalAlign=middle;resizable=0;points=[];autosize=1;strokeColor=none;fillColor=none;" vertex="1" parent="mFGwXmJiUFZ16h0V5Hi0-10">
          <mxGeometry width="90" height="40" as="geometry" />
        </mxCell>
        <mxCell id="mFGwXmJiUFZ16h0V5Hi0-11" value="" style="group" vertex="1" connectable="0" parent="1">
          <mxGeometry x="369" y="240" width="90" height="118" as="geometry" />
        </mxCell>
        <mxCell id="mFGwXmJiUFZ16h0V5Hi0-12" value="" style="sketch=0;outlineConnect=0;fontColor=#ffffff;fillColor=#1A1A1A;strokeColor=#6F0000;dashed=0;verticalLabelPosition=bottom;verticalAlign=top;align=center;html=1;fontSize=12;fontStyle=0;aspect=fixed;pointerEvents=1;shape=mxgraph.aws4.sagemaker_model;" vertex="1" parent="mFGwXmJiUFZ16h0V5Hi0-11">
          <mxGeometry x="6" y="40" width="78" height="78" as="geometry" />
        </mxCell>
        <mxCell id="mFGwXmJiUFZ16h0V5Hi0-13" value="&lt;font style=&quot;font-size: 18px;&quot;&gt;&lt;b&gt;Model 3&lt;/b&gt;&lt;/font&gt;" style="text;html=1;align=center;verticalAlign=middle;resizable=0;points=[];autosize=1;strokeColor=none;fillColor=none;" vertex="1" parent="mFGwXmJiUFZ16h0V5Hi0-11">
          <mxGeometry width="90" height="40" as="geometry" />
        </mxCell>
        <mxCell id="mFGwXmJiUFZ16h0V5Hi0-14" value="" style="endArrow=none;dashed=1;html=1;dashPattern=1 3;strokeWidth=5;rounded=0;" edge="1" parent="1">
          <mxGeometry width="50" height="50" relative="1" as="geometry">
            <mxPoint x="480" y="320" as="sourcePoint" />
            <mxPoint x="580" y="320" as="targetPoint" />
          </mxGeometry>
        </mxCell>
        <mxCell id="mFGwXmJiUFZ16h0V5Hi0-17" value="" style="group" vertex="1" connectable="0" parent="1">
          <mxGeometry x="590" y="240" width="90" height="118" as="geometry" />
        </mxCell>
        <mxCell id="mFGwXmJiUFZ16h0V5Hi0-18" value="" style="sketch=0;outlineConnect=0;fontColor=#ffffff;fillColor=#1A1A1A;strokeColor=#3A5431;dashed=0;verticalLabelPosition=bottom;verticalAlign=top;align=center;html=1;fontSize=12;fontStyle=0;aspect=fixed;pointerEvents=1;shape=mxgraph.aws4.sagemaker_model;" vertex="1" parent="mFGwXmJiUFZ16h0V5Hi0-17">
          <mxGeometry x="6" y="40" width="78" height="78" as="geometry" />
        </mxCell>
        <mxCell id="mFGwXmJiUFZ16h0V5Hi0-19" value="&lt;b style=&quot;border-color: var(--border-color); font-size: 18px;&quot;&gt;Model n&lt;/b&gt;" style="text;html=1;align=center;verticalAlign=middle;resizable=0;points=[];autosize=1;strokeColor=none;fillColor=none;" vertex="1" parent="mFGwXmJiUFZ16h0V5Hi0-17">
          <mxGeometry width="90" height="40" as="geometry" />
        </mxCell>
        <mxCell id="mFGwXmJiUFZ16h0V5Hi0-22" value="" style="rounded=0;whiteSpace=wrap;html=1;labelBackgroundColor=default;" vertex="1" parent="1">
          <mxGeometry x="230" y="410" width="220" height="220" as="geometry" />
        </mxCell>
        <mxCell id="mFGwXmJiUFZ16h0V5Hi0-23" value="&lt;b style=&quot;border-color: var(--border-color); font-size: 28px;&quot;&gt;M3SA&lt;/b&gt;" style="text;html=1;align=center;verticalAlign=middle;resizable=0;points=[];autosize=1;strokeColor=none;fillColor=none;strokeWidth=4;fontSize=28;" vertex="1" parent="1">
          <mxGeometry x="295" y="410" width="100" height="50" as="geometry" />
        </mxCell>
        <mxCell id="mFGwXmJiUFZ16h0V5Hi0-24" value="&lt;font style=&quot;font-size: 27px;&quot;&gt;Multi-Model&lt;/font&gt;" style="rounded=0;whiteSpace=wrap;html=1;fillColor=#d5e8d4;strokeColor=#82b366;" vertex="1" parent="1">
          <mxGeometry x="260" y="470" width="170" height="60" as="geometry" />
        </mxCell>
        <mxCell id="mFGwXmJiUFZ16h0V5Hi0-25" value="&lt;font style=&quot;font-size: 27px;&quot;&gt;Meta-Model&lt;/font&gt;" style="rounded=0;whiteSpace=wrap;html=1;fillColor=#dae8fc;strokeColor=#6c8ebf;" vertex="1" parent="1">
          <mxGeometry x="260" y="560" width="170" height="60" as="geometry" />
        </mxCell>
        <mxCell id="mFGwXmJiUFZ16h0V5Hi0-38" style="edgeStyle=orthogonalEdgeStyle;rounded=0;orthogonalLoop=1;jettySize=auto;html=1;entryX=0;entryY=0.75;entryDx=0;entryDy=0;strokeWidth=3;" edge="1" parent="1" source="mFGwXmJiUFZ16h0V5Hi0-3" target="mFGwXmJiUFZ16h0V5Hi0-24">
          <mxGeometry relative="1" as="geometry">
            <mxPoint x="270" y="520" as="targetPoint" />
            <Array as="points">
              <mxPoint x="150" y="515" />
            </Array>
          </mxGeometry>
        </mxCell>
        <mxCell id="mFGwXmJiUFZ16h0V5Hi0-39" style="edgeStyle=orthogonalEdgeStyle;rounded=0;orthogonalLoop=1;jettySize=auto;html=1;entryX=0;entryY=0.25;entryDx=0;entryDy=0;strokeWidth=3;" edge="1" parent="1" source="mFGwXmJiUFZ16h0V5Hi0-6" target="mFGwXmJiUFZ16h0V5Hi0-24">
          <mxGeometry relative="1" as="geometry">
            <Array as="points">
              <mxPoint x="210" y="319" />
              <mxPoint x="210" y="485" />
            </Array>
          </mxGeometry>
        </mxCell>
        <mxCell id="mFGwXmJiUFZ16h0V5Hi0-40" style="edgeStyle=orthogonalEdgeStyle;rounded=0;orthogonalLoop=1;jettySize=auto;html=1;entryX=1;entryY=0.25;entryDx=0;entryDy=0;strokeWidth=3;" edge="1" parent="1" source="mFGwXmJiUFZ16h0V5Hi0-12" target="mFGwXmJiUFZ16h0V5Hi0-24">
          <mxGeometry relative="1" as="geometry">
            <Array as="points">
              <mxPoint x="470" y="319" />
              <mxPoint x="470" y="485" />
            </Array>
          </mxGeometry>
        </mxCell>
        <mxCell id="mFGwXmJiUFZ16h0V5Hi0-41" style="edgeStyle=orthogonalEdgeStyle;rounded=0;orthogonalLoop=1;jettySize=auto;html=1;entryX=1;entryY=0.75;entryDx=0;entryDy=0;strokeWidth=3;" edge="1" parent="1" source="mFGwXmJiUFZ16h0V5Hi0-18" target="mFGwXmJiUFZ16h0V5Hi0-24">
          <mxGeometry relative="1" as="geometry">
            <Array as="points">
              <mxPoint x="635" y="515" />
            </Array>
          </mxGeometry>
        </mxCell>
        <mxCell id="mFGwXmJiUFZ16h0V5Hi0-43" value="" style="shape=flexArrow;endArrow=classic;html=1;rounded=0;fillColor=none;exitX=0.5;exitY=1;exitDx=0;exitDy=0;strokeColor=#666666;" edge="1" parent="1" source="mFGwXmJiUFZ16h0V5Hi0-24">
          <mxGeometry width="50" height="50" relative="1" as="geometry">
            <mxPoint x="344.86" y="540" as="sourcePoint" />
            <mxPoint x="344.86" y="560" as="targetPoint" />
          </mxGeometry>
        </mxCell>
      </root>
    </mxGraphModel>
  </diagram>
</mxfile>
